<svg width="122" height="53" viewBox="0 0 122 53" fill="none" xmlns="http://www.w3.org/2000/svg">
<path d="M43.6342 13.3618H42.9122V7.81434L39.8147 12.484H39.5578L36.4504 7.80474V13.3618H35.7296V6.10547H36.2039L39.6813 11.4049L43.1686 6.10547H43.6342V13.3618Z" fill="white"/>
<path d="M49.4098 11.1564H45.3904C45.4573 12.2156 46.2558 12.8465 47.0634 12.8465C47.7284 12.8465 48.3266 12.5884 48.6588 11.8346L49.3051 11.9874C48.9351 12.9701 48.1175 13.4843 47.0634 13.4843C45.8189 13.4843 44.6875 12.5216 44.6875 11.0228C44.6875 9.51477 45.8189 8.5409 47.1096 8.5409C48.3744 8.5409 49.362 9.48558 49.4098 10.8888V11.1564ZM45.4187 10.6127H48.6786C48.546 9.68565 47.8901 9.17914 47.1096 9.17914C46.3506 9.17914 45.562 9.68565 45.4187 10.6127Z" fill="white"/>
<path d="M54.8346 10.5458V13.3615H54.1122V10.6791C54.1122 9.80009 53.5901 9.20871 52.8108 9.20871C51.8327 9.20871 51.1864 9.87612 51.1864 11.0992V13.3615H50.4644V8.65534H51.1864V9.43835C51.5663 8.86539 52.1648 8.54052 52.953 8.54052C54.0832 8.54052 54.8346 9.35156 54.8346 10.5458Z" fill="white"/>
<path d="M57.1149 11.8911C57.1149 12.4544 57.4287 12.7981 57.9309 12.7981C58.1973 12.7981 58.4928 12.6844 58.7301 12.512L58.9671 13.1134C58.5864 13.3807 58.2631 13.4859 57.8847 13.4859C56.9528 13.4859 56.3818 12.9033 56.3818 11.9387V9.26593H55.3666V8.65573H56.3818V6.72643L57.1149 6.48795V8.65573H59.1666V9.26593H57.1149V11.8911Z" fill="white"/>
<path d="M64.2963 13.3618H63.5751V12.618C63.1581 13.1706 62.4915 13.4859 61.713 13.4859C60.4669 13.4859 59.3749 12.5017 59.3749 11.0132C59.3749 9.52361 60.4669 8.54091 61.713 8.54091C62.4915 8.54091 63.1581 8.85618 63.5751 9.40878V8.65573H64.2963V13.3618ZM63.5751 11.0132C63.5751 9.88765 62.7109 9.1803 61.8272 9.1803C60.8579 9.1803 60.0782 9.88765 60.0782 11.0132C60.0782 12.1303 60.8579 12.8365 61.8272 12.8365C62.7109 12.8365 63.5751 12.1303 63.5751 11.0132Z" fill="white"/>
<path d="M66.4058 12.1579C66.4058 12.5404 66.6722 12.7885 67.0712 12.7885C67.2516 12.7885 67.4508 12.7324 67.6308 12.636L67.7833 13.247C67.5543 13.3803 67.3181 13.4855 66.9566 13.4855C66.1868 13.4855 65.6838 12.9698 65.6838 12.1971V5.7249H66.4058V12.1579Z" fill="white"/>
<path d="M76.5999 13.3618H75.8496V10.0678H71.508V13.3618H70.7577V6.10547H71.508V9.37959H75.8496V6.10547H76.5999V13.3618Z" fill="white"/>
<path d="M82.3767 11.1564H78.3577C78.423 12.2156 79.2222 12.8465 80.0302 12.8465C80.6953 12.8465 81.2931 12.5884 81.6256 11.8346L82.2719 11.9874C81.9008 12.9701 81.0844 13.4843 80.0302 13.4843C78.7842 13.4843 77.6544 12.5216 77.6544 11.0228C77.6544 9.51477 78.7842 8.5409 80.0765 8.5409C81.3412 8.5409 82.3289 9.48558 82.3767 10.8888V11.1564ZM78.3856 10.6127H81.6455C81.5113 9.68565 80.8558 9.17914 80.0765 9.17914C79.3174 9.17914 78.5289 9.68565 78.3856 10.6127Z" fill="white"/>
<path d="M87.9249 13.3618H87.2033V12.618C86.7844 13.1706 86.1193 13.4859 85.3407 13.4859C84.0962 13.4859 83.0031 12.5017 83.0031 11.0132C83.0031 9.52361 84.0962 8.54091 85.3407 8.54091C86.1193 8.54091 86.7844 8.85618 87.2033 9.40878V8.65573H87.9249V13.3618ZM87.2033 11.0132C87.2033 9.88765 86.3379 9.1803 85.4535 9.1803C84.4857 9.1803 83.7049 9.88765 83.7049 11.0132C83.7049 12.1303 84.4857 12.8365 85.4535 12.8365C86.3379 12.8365 87.2033 12.1303 87.2033 11.0132Z" fill="white"/>
<path d="M90.034 12.1579C90.034 12.5404 90.3 12.7885 90.6975 12.7885C90.8795 12.7885 91.079 12.7324 91.2586 12.636L91.4111 13.247C91.1822 13.3803 90.946 13.4855 90.5848 13.4855C89.8146 13.4855 89.3109 12.9698 89.3109 12.1971V5.7249H90.034V12.1579Z" fill="white"/>
<path d="M92.9216 11.8911C92.9216 12.4544 93.2343 12.7981 93.738 12.7981C94.004 12.7981 94.2976 12.6844 94.5372 12.512L94.7742 13.1134C94.3935 13.3807 94.0717 13.4859 93.6918 13.4859C92.7595 13.4859 92.1904 12.9033 92.1904 11.9387V9.26593H91.1737V8.65573H92.1904V6.72643L92.9216 6.48795V8.65573H94.9749V9.26593H92.9216V11.8911Z" fill="white"/>
<path d="M100.029 10.5458V13.3615H99.3062V10.6791C99.3062 9.80009 98.7841 9.2087 98.0047 9.2087C97.0263 9.2087 96.3803 9.87612 96.3803 11.0992V13.3615H95.6568V5.72452H96.3803V9.43835C96.7603 8.86539 97.3573 8.54052 98.1469 8.54052C99.2783 8.54052 100.029 9.35156 100.029 10.5458Z" fill="white"/>
<path d="M36.4798 18.7223H40.6601V19.4093H36.4798V22.703H35.728V15.4486H40.8115V16.1256H36.4798V18.7223Z" fill="white"/>
<path d="M46.0754 20.3456C46.0754 21.7872 44.973 22.8275 43.5864 22.8275C42.189 22.8275 41.0867 21.7872 41.0867 20.3456C41.0867 18.9044 42.189 17.8821 43.5864 17.8821C44.973 17.8821 46.0754 18.9044 46.0754 20.3456ZM45.3721 20.3456C45.3721 19.2661 44.574 18.5319 43.5864 18.5319C42.5876 18.5319 41.7899 19.2661 41.7899 20.3456C41.7899 21.4331 42.5876 22.1785 43.5864 22.1785C44.574 22.1785 45.3721 21.4331 45.3721 20.3456Z" fill="white"/>
<path d="M51.3962 22.6938H50.6638V21.9312C50.2839 22.4934 49.6762 22.8182 48.8965 22.8182C47.7666 22.8182 47.0148 22.0057 47.0148 20.8129V17.9973H47.7468V20.6797C47.7468 21.5587 48.2601 22.1405 49.0387 22.1405C50.0179 22.1405 50.6638 21.4811 50.6638 20.2595V17.9973H51.3962V22.6938Z" fill="white"/>
<path d="M57.2383 19.8874V22.703H56.5163V20.0207C56.5163 19.1432 55.9942 18.5503 55.2145 18.5503C54.2364 18.5503 53.5905 19.2192 53.5905 20.4408V22.703H52.8669V17.9969H53.5905V18.7799C53.9689 18.207 54.5678 17.8821 55.3571 17.8821C56.4869 17.8821 57.2383 18.6947 57.2383 19.8874Z" fill="white"/>
<path d="M63.0996 22.7034H62.3788V21.9596C61.9599 22.5122 61.2948 22.8275 60.5162 22.8275C59.2717 22.8275 58.1786 21.8444 58.1786 20.3548C58.1786 18.8652 59.2717 17.8825 60.5162 17.8825C61.2948 17.8825 61.9599 18.1978 62.3788 18.7504V15.0665H63.0996V22.7034ZM62.3788 20.3548C62.3788 19.2285 61.5134 18.5219 60.6305 18.5219C59.6597 18.5219 58.8803 19.2285 58.8803 20.3548C58.8803 21.4719 59.6597 22.1785 60.6305 22.1785C61.5134 22.1785 62.3788 21.4719 62.3788 20.3548Z" fill="white"/>
<path d="M69.076 22.7034H68.354V21.9596C67.9366 22.5122 67.27 22.8275 66.4914 22.8275C65.2469 22.8275 64.1534 21.8444 64.1534 20.3548C64.1534 18.8652 65.2469 17.8825 66.4914 17.8825C67.27 17.8825 67.9366 18.1978 68.354 18.7504V17.9973H69.076V22.7034ZM68.354 20.3548C68.354 19.2285 67.4894 18.5219 66.6057 18.5219C65.6364 18.5219 64.8567 19.2285 64.8567 20.3548C64.8567 21.4719 65.6364 22.1785 66.6057 22.1785C67.4894 22.1785 68.354 21.4719 68.354 20.3548Z" fill="white"/>
<path d="M71.4701 21.2338C71.4701 21.796 71.7828 22.1408 72.2865 22.1408C72.5526 22.1408 72.8473 22.026 73.0842 21.8536L73.3227 22.4561C72.942 22.7234 72.6187 22.8275 72.2388 22.8275C71.3085 22.8275 70.7378 22.2449 70.7378 21.2803V18.6087H69.7207V17.9965H70.7378V16.068L71.4701 15.8307V17.9965H73.5219V18.6087H71.4701V21.2338Z" fill="white"/>
<path d="M75.1476 16.24C75.1476 16.5173 74.928 16.7266 74.6434 16.7266C74.3572 16.7266 74.1479 16.5173 74.1479 16.24C74.1479 15.9824 74.3572 15.7531 74.6434 15.7531C74.928 15.7531 75.1476 15.9824 75.1476 16.24ZM74.2822 17.9973H75.0144V22.7034H74.2822V17.9973Z" fill="white"/>
<path d="M81.1322 20.3456C81.1322 21.7872 80.0287 22.8275 78.642 22.8275C77.2458 22.8275 76.1439 21.7872 76.1439 20.3456C76.1439 18.9044 77.2458 17.8821 78.642 17.8821C80.0287 17.8821 81.1322 18.9044 81.1322 20.3456ZM80.4289 20.3456C80.4289 19.2661 79.6312 18.5319 78.642 18.5319C77.6448 18.5319 76.8468 19.2661 76.8468 20.3456C76.8468 21.4331 77.6448 22.1785 78.642 22.1785C79.6312 22.1785 80.4289 21.4331 80.4289 20.3456Z" fill="white"/>
<path d="M86.557 19.8874V22.703H85.8342V20.0207C85.8342 19.1432 85.3125 18.5503 84.532 18.5503C83.5535 18.5503 82.9076 19.2192 82.9076 20.4408V22.703H82.1852V17.9969H82.9076V18.7799C83.2875 18.207 83.8872 17.8821 84.6753 17.8821C85.8055 17.8821 86.557 18.6947 86.557 19.8874Z" fill="white"/>
<path d="M14.2474 3.8147e-06C6.39149 3.8147e-06 0 6.42191 0 14.3154C0 22.2088 6.39149 28.6292 14.2474 28.6292C22.1047 28.6292 28.4938 22.2088 28.4938 14.3154C28.4938 6.42191 22.1047 3.8147e-06 14.2474 3.8147e-06ZM14.2474 0.738852C16.5994 0.738852 18.8961 1.3525 20.9267 2.51838C20.0243 2.62667 19.2193 3.16775 18.7702 3.98033C18.762 3.993 18.7545 4.00567 18.7477 4.01758L14.8225 11.4379H13.6727L9.74214 4.00682C9.73335 3.98993 9.72246 3.97457 9.71291 3.96036C9.26155 3.15853 8.46023 2.62667 7.56577 2.51838C9.59912 1.3525 11.8947 0.738852 14.2474 0.738852ZM18.4149 6.20302V11.4379H15.6462L18.4149 6.20302ZM14.4359 12.1676L14.2474 12.5255L14.0581 12.1676H14.4359ZM12.8498 11.4379H10.0812V6.20302L12.8498 11.4379ZM4.3847 23.5851C2.02662 21.0591 0.734543 17.7911 0.734543 14.3154C0.734543 10.8381 2.02662 7.57088 4.3847 5.04521C4.37247 5.15158 4.36697 5.25987 4.36697 5.36778V23.2629C4.36697 23.3716 4.37247 23.4784 4.3847 23.5851ZM14.2474 27.8919C11.8954 27.8919 9.59988 27.2782 7.56711 26.1135C8.981 25.9399 10.0812 24.7283 10.0812 23.2629V17.9889H11.1064L11.7204 19.149C12.2153 20.0948 13.1833 20.6823 14.2474 20.6823C15.3107 20.6823 16.2794 20.0948 16.7757 19.149L17.389 17.9889H18.4149V23.2629C18.4149 24.7283 19.5136 25.9399 20.9259 26.1135C18.8955 27.2782 16.5994 27.8919 14.2474 27.8919ZM10.0832 17.2585V16.0534L10.7204 17.2585H10.0832ZM11.9301 17.9889H16.5653L16.1323 18.8083C15.7627 19.5146 15.0403 19.952 14.2474 19.952C13.4549 19.952 12.7327 19.5146 12.3617 18.8083L11.9301 17.9889ZM17.7742 17.2585L18.4128 16.0534V17.2585H17.7742ZM23.4019 23.2629C23.4019 24.4426 22.4464 25.4031 21.2707 25.4031C20.0961 25.4031 19.1414 24.4426 19.1414 23.2629L19.1391 14.5884C19.1391 14.4187 19.0255 14.2743 18.8641 14.2324C18.8349 14.2259 18.8056 14.2228 18.7756 14.2228C18.6415 14.2228 18.5184 14.2981 18.4543 14.4171L16.9518 17.2585H11.5441L10.0396 14.416C9.96269 14.27 9.79321 14.1944 9.63184 14.2324C9.46982 14.2743 9.35546 14.4187 9.35546 14.5884L9.3534 23.2629C9.3534 24.4426 8.3977 25.4031 7.22342 25.4031C6.04914 25.4031 5.09406 24.4426 5.09406 23.2629V5.36778C5.09406 4.18885 6.04914 3.2265 7.22342 3.2265C8.3977 3.2265 9.3534 4.18885 9.3534 5.36778V12.1676H13.2351L13.9274 13.474C13.99 13.5946 14.1126 13.6691 14.2474 13.6691C14.3828 13.6691 14.5054 13.5946 14.5679 13.474L15.2597 12.1676H19.1414V5.36778C19.1414 4.18885 20.0961 3.2265 21.2707 3.2265C22.4464 3.2265 23.4019 4.18885 23.4019 5.36778V23.2629ZM24.1098 23.5851C24.1228 23.4784 24.127 23.3716 24.127 23.2629V5.36778C24.127 5.25987 24.1228 5.15158 24.1098 5.04521C26.4681 7.57203 27.7596 10.8396 27.7596 14.3154C27.7596 17.7911 26.4681 21.0591 24.1098 23.5851Z" fill="white"/>
<path d="M107.894 32.5569L106.6 23.4265C106.6 23.4265 90.7923 39.0994 52.0693 32.0581C51.0247 31.7551 48.8586 31.2251 46.638 30.7355C45.3262 30.3327 43.5814 30.07 41.6516 29.9103C41.3374 29.8841 41.0186 29.6434 40.6957 29.6365C40.6823 29.6353 40.6678 29.6334 40.6548 29.6322L39.9278 29.6871C37.8199 29.6484 36.0804 30.1299 33.9511 31.4782C32.2009 32.9163 30.7313 34.8437 28.357 37.2619C31.3979 35.4266 40.3612 38.6889 43.2221 39.5733C46.1193 40.3839 84.3741 52.2787 107.894 32.5569Z" fill="url(#paint0_linear_153_1756)"/>
<path d="M14.5819 39.7307L16.6992 35.563C16.6992 35.563 20.6798 37.8283 25.2526 37.7791C27.1817 37.7584 27.6697 37.498 29.5927 36.3037C29.5927 36.3037 25.167 39.695 24.5191 40.1051C23.8713 40.5149 21.9174 41.5536 21.9174 41.5536C15.4354 45.5781 7.96472 41.0214 7.96472 41.0214L14.5819 39.7307Z" fill="url(#paint1_linear_153_1756)"/>
<path d="M14.6531 39.5951L8.02803 40.8996L7.892 41.102L14.582 39.7307L14.6531 39.5951Z" fill="#59B469"/>
<path d="M7.8996 41.0636C7.8996 41.0636 18.862 49.08 31.5768 33.6721C33.333 31.5439 36.1855 29.6921 38.9784 29.6845C41.0011 29.6791 43.706 30.0723 47.4032 30.9506C56.2052 33.0419 86.0593 39.1313 105.424 24.2441" stroke="#59B469" stroke-width="1.00062"/>
<path d="M112.029 3.27948C113.54 1.87974 115.438 1.47346 117.519 2.10248C119.6 2.73188 120.959 4.12355 121.451 6.12811C121.959 8.20449 121.448 10.524 120.515 12.3081C120.061 10.9452 118.615 8.8673 115.752 8.00173C112.889 7.13616 110.541 8.06663 109.415 8.95179C109.617 6.94607 110.465 4.72876 112.029 3.27948Z" fill="url(#paint2_linear_153_1756)"/>
<path d="M106.251 24.8524C112.035 20.2077 117.749 15.5576 119.089 14.2516C120.799 12.5857 122.137 9.08851 121.419 6.12083C120.934 4.1201 119.585 2.73265 117.518 2.10748L117.562 1.96078C120.242 2.77144 121.219 4.65081 121.566 6.08473C122.299 9.10502 120.936 12.6652 119.195 14.3618C117.854 15.6686 112.133 20.3248 106.331 24.9818C106.305 24.938 106.277 24.8954 106.251 24.8524Z" fill="#54BB5A"/>
<path d="M106.65 24.7253C112.341 20.1551 117.879 15.6444 119.195 14.3618C120.936 12.6652 122.299 9.10501 121.566 6.08473C122.027 7.31012 122.08 12.0727 121.915 14.9405C121.708 18.5461 120.522 22.5713 118.338 24.7157C117.349 25.6876 114.126 28.5854 110.306 31.9839L106.65 24.7253Z" fill="url(#paint3_linear_153_1756)"/>
<path d="M119.754 44.201L119.854 44.0252C119.751 43.7325 110.402 15.3299 109.536 11.363C109.025 9.02553 109.83 5.36662 112.06 3.29102C113.563 1.89166 115.451 1.48268 117.518 2.10748L117.562 1.96078C114.881 1.15012 113.035 2.17621 111.957 3.17888C109.687 5.29135 108.867 9.01593 109.387 11.3957C110.255 15.3718 119.651 43.9084 119.754 44.201Z" fill="#54BB5A"/>
<path d="M119.754 44.201L115.657 45.827L113.077 53C112.974 52.7078 105.264 24.4753 104.413 20.5049C103.77 17.5061 104.993 13.4916 106.801 10.3703C108.239 7.88769 110.9 3.94537 111.957 3.17887C109.687 5.29135 108.867 9.01592 109.387 11.3957C110.255 15.3718 119.651 43.9084 119.754 44.201Z" fill="url(#paint4_linear_153_1756)"/>
<defs>
<linearGradient id="paint0_linear_153_1756" x1="29.0881" y1="32.5346" x2="111.51" y2="32.5346" gradientUnits="userSpaceOnUse">
<stop stop-color="#1E5F2E"/>
<stop offset="0.0141912" stop-color="#1E5F2E"/>
<stop offset="0.0241758" stop-color="#1E5F2E"/>
<stop offset="0.230238" stop-color="#37A83F"/>
<stop offset="0.37522" stop-color="#37A83F"/>
<stop offset="0.522692" stop-color="#4DBE4B"/>
<stop offset="0.64022" stop-color="#37A83F"/>
<stop offset="0.749154" stop-color="#37A83F"/>
<stop offset="0.995055" stop-color="#1E5F2E"/>
<stop offset="0.995421" stop-color="#1E5F2E"/>
<stop offset="1" stop-color="#1E5F2E"/>
</linearGradient>
<linearGradient id="paint1_linear_153_1756" x1="31.1529" y1="36.1294" x2="12.5673" y2="48.1424" gradientUnits="userSpaceOnUse">
<stop stop-color="#1E5F2E"/>
<stop offset="0.0101888" stop-color="#1E5F2E"/>
<stop offset="0.0118132" stop-color="#1E5F2E"/>
<stop offset="0.605369" stop-color="#37A83F"/>
<stop offset="0.7" stop-color="#37A83F"/>
<stop offset="1" stop-color="#4DBE4B"/>
</linearGradient>
<linearGradient id="paint2_linear_153_1756" x1="120.691" y1="12.3615" x2="109.23" y2="8.92819" gradientUnits="userSpaceOnUse">
<stop stop-color="#1E5F2E"/>
<stop offset="0.0118132" stop-color="#1E5F2E"/>
<stop offset="0.565879" stop-color="#37A83F"/>
<stop offset="1" stop-color="#4DBE4B"/>
</linearGradient>
<linearGradient id="paint3_linear_153_1756" x1="108.482" y1="5.76561" x2="121.463" y2="31.6238" gradientUnits="userSpaceOnUse">
<stop stop-color="#4DBE4B"/>
<stop offset="0.434121" stop-color="#37A83F"/>
<stop offset="0.988187" stop-color="#1E5F2E"/>
<stop offset="0.989061" stop-color="#1E5F2E"/>
<stop offset="1" stop-color="#1E5F2E"/>
</linearGradient>
<linearGradient id="paint4_linear_153_1756" x1="116.783" y1="54.1206" x2="95.049" y2="47.6102" gradientUnits="userSpaceOnUse">
<stop stop-color="#4DBE4B"/>
<stop offset="0.0989011" stop-color="#37A83F"/>
<stop offset="0.368132" stop-color="#4DBE4B"/>
<stop offset="0.709945" stop-color="#37A83F"/>
<stop offset="0.988187" stop-color="#1E5F2E"/>
<stop offset="0.989061" stop-color="#1E5F2E"/>
<stop offset="1" stop-color="#1E5F2E"/>
</linearGradient>
</defs>
</svg>
